<?plantuml 1.2026.2?><svg xmlns="http://www.w3.org/2000/svg" xmlns:xlink="http://www.w3.org/1999/xlink" contentStyleType="text/css" data-diagram-type="SEQUENCE" height="884px" preserveAspectRatio="none" style="width:452px;height:884px;background:#FFFFFF;" version="1.1" viewBox="0 0 452 884" width="452px" zoomAndPan="magnify"><defs/><g><g class="participant-lifeline" data-entity-uid="part1" data-qualified-name="Host" id="part1-lifeline"><g><title>Host</title><rect fill="#000000" fill-opacity="0.00000" height="840.6953" width="8" x="23.6304" y="36.4883"/><line style="stroke:#181818;stroke-width:0.5;stroke-dasharray:5,5;" x1="27" x2="27" y1="36.4883" y2="877.1836"/></g></g><g class="participant-lifeline" data-entity-uid="part2" data-qualified-name="Participant" id="part2-lifeline"><g><title>Participant</title><rect fill="#000000" fill-opacity="0.00000" height="840.6953" width="8" x="99.3442" y="36.4883"/><line style="stroke:#181818;stroke-width:0.5;stroke-dasharray:5,5;" x1="103.2607" x2="103.2607" y1="36.4883" y2="877.1836"/></g></g><g class="participant-lifeline" data-entity-uid="part3" data-qualified-name="Railway" id="part3-lifeline"><g><title>Railway</title><rect fill="#000000" fill-opacity="0.00000" height="840.6953" width="8" x="184.6831" y="36.4883"/><line style="stroke:#181818;stroke-width:0.5;stroke-dasharray:5,5;" x1="188.4277" x2="188.4277" y1="36.4883" y2="877.1836"/></g></g><g class="participant-lifeline" data-entity-uid="part4" data-qualified-name="Daemon" id="part4-lifeline"><g><title>Daemon</title><rect fill="#000000" fill-opacity="0.00000" height="840.6953" width="8" x="407.7383" y="36.4883"/><line style="stroke:#181818;stroke-width:0.5;stroke-dasharray:5,5;" x1="411.5503" x2="411.5503" y1="36.4883" y2="877.1836"/></g></g><g class="participant participant-head" data-entity-uid="part1" data-qualified-name="Host" id="part1-head"><rect fill="#E2E2F0" height="30.4883" rx="2.5" ry="2.5" style="stroke:#181818;stroke-width:0.5;" width="45.2607" x="5" y="5"/><text fill="#000000" font-family="sans-serif" font-size="14" lengthAdjust="spacing" textLength="31.2607" x="12" y="25.5352">Host</text></g><g class="participant participant-head" data-entity-uid="part2" data-qualified-name="Participant" id="part2-head"><rect fill="#E2E2F0" height="30.4883" rx="2.5" ry="2.5" style="stroke:#181818;stroke-width:0.5;" width="86.167" x="60.2607" y="5"/><text fill="#000000" font-family="sans-serif" font-size="14" lengthAdjust="spacing" textLength="72.167" x="67.2607" y="25.5352">Participant</text></g><g class="participant participant-head" data-entity-uid="part3" data-qualified-name="Railway" id="part3-head"><rect fill="#E2E2F0" height="30.4883" rx="2.5" ry="2.5" style="stroke:#181818;stroke-width:0.5;" width="64.5107" x="156.4277" y="5"/><text fill="#000000" font-family="sans-serif" font-size="14" lengthAdjust="spacing" textLength="50.5107" x="163.4277" y="25.5352">Railway</text></g><g class="participant participant-head" data-entity-uid="part4" data-qualified-name="Daemon" id="part4-head"><rect fill="#E2E2F0" height="30.4883" rx="2.5" ry="2.5" style="stroke:#181818;stroke-width:0.5;" width="70.376" x="376.5503" y="5"/><text fill="#000000" font-family="sans-serif" font-size="14" lengthAdjust="spacing" textLength="56.376" x="383.5503" y="25.5352">Daemon</text></g><g class="message" data-entity-1="part4" data-entity-2="part2" id="msg1"><polygon fill="#181818" points="114.3442,63.7988,104.3442,67.7988,114.3442,71.7988,110.3442,67.7988" style="stroke:#181818;stroke-width:1;"/><line style="stroke:#181818;stroke-width:1;stroke-dasharray:2,2;" x1="108.3442" x2="410.7383" y1="67.7988" y2="67.7988"/><text fill="#000000" font-family="sans-serif" font-size="13" lengthAdjust="spacing" textLength="159.4722" x="120.3442" y="63.0566">broadcast notes_updated</text></g><g class="message" data-entity-1="part4" data-entity-2="part2" id="msg2"><polygon fill="#181818" points="114.3442,93.1094,104.3442,97.1094,114.3442,101.1094,110.3442,97.1094" style="stroke:#181818;stroke-width:1;"/><line style="stroke:#181818;stroke-width:1;stroke-dasharray:2,2;" x1="108.3442" x2="410.7383" y1="97.1094" y2="97.1094"/><text fill="#000000" font-family="sans-serif" font-size="13" lengthAdjust="spacing" textLength="182.9458" x="120.3442" y="92.3672">broadcast summary_updated</text></g><g class="message" data-entity-1="part1" data-entity-2="part4" id="msg3"><polygon fill="#181818" points="399.7383,122.4199,409.7383,126.4199,399.7383,130.4199,403.7383,126.4199" style="stroke:#181818;stroke-width:1;"/><line style="stroke:#181818;stroke-width:1;" x1="27.6304" x2="405.7383" y1="126.4199" y2="126.4199"/><text fill="#000000" font-family="sans-serif" font-size="13" lengthAdjust="spacing" textLength="238.3608" x="34.6304" y="121.6777">DELETE /api/{session_id}/host/scores</text></g><g class="message" data-entity-1="part4" data-entity-2="part2" id="msg4"><polygon fill="#181818" points="114.3442,151.7305,104.3442,155.7305,114.3442,159.7305,110.3442,155.7305" style="stroke:#181818;stroke-width:1;"/><line style="stroke:#181818;stroke-width:1;stroke-dasharray:2,2;" x1="108.3442" x2="410.7383" y1="155.7305" y2="155.7305"/><text fill="#000000" font-family="sans-serif" font-size="13" lengthAdjust="spacing" textLength="165.147" x="120.3442" y="150.9883">broadcast scores_updated</text></g><g class="message" data-entity-1="part1" data-entity-2="part4" id="msg5"><polygon fill="#181818" points="399.7383,181.041,409.7383,185.041,399.7383,189.041,403.7383,185.041" style="stroke:#181818;stroke-width:1;"/><line style="stroke:#181818;stroke-width:1;" x1="27.6304" x2="405.7383" y1="185.041" y2="185.041"/><text fill="#000000" font-family="sans-serif" font-size="13" lengthAdjust="spacing" textLength="143.7808" x="34.6304" y="180.2988">GET /host/{session_id}</text></g><g class="message" data-entity-1="part1" data-entity-2="part4" id="msg6"><polygon fill="#181818" points="399.7383,210.3516,409.7383,214.3516,399.7383,218.3516,403.7383,214.3516" style="stroke:#181818;stroke-width:1;"/><line style="stroke:#181818;stroke-width:1;" x1="27.6304" x2="405.7383" y1="214.3516" y2="214.3516"/><text fill="#000000" font-family="sans-serif" font-size="13" lengthAdjust="spacing" textLength="207.3081" x="34.6304" y="209.6094">GET /api/{session_id}/host/state</text></g><g class="message" data-entity-1="part2" data-entity-2="part4" id="msg7"><polygon fill="#181818" points="399.7383,239.6621,409.7383,243.6621,399.7383,247.6621,403.7383,243.6621" style="stroke:#181818;stroke-width:1;"/><line style="stroke:#181818;stroke-width:1;" x1="103.3442" x2="405.7383" y1="243.6621" y2="243.6621"/><text fill="#000000" font-family="sans-serif" font-size="13" lengthAdjust="spacing" textLength="192.6768" x="110.3442" y="238.9199">POST /api/participant/register</text></g><g class="message" data-entity-1="part3" data-entity-2="part4" id="msg8"><polygon fill="#181818" points="399.7383,268.9727,409.7383,272.9727,399.7383,276.9727,403.7383,272.9727" style="stroke:#181818;stroke-width:1;"/><line style="stroke:#181818;stroke-width:1;" x1="188.6831" x2="405.7383" y1="272.9727" y2="272.9727"/><text fill="#000000" font-family="sans-serif" font-size="13" lengthAdjust="spacing" textLength="178.3691" x="195.6831" y="268.2305">GET /{session_id}/api/slides</text></g><g class="message" data-entity-1="part4" data-entity-2="part1" id="msg9"><polygon fill="#181818" points="38.6304,298.2832,28.6304,302.2832,38.6304,306.2832,34.6304,302.2832" style="stroke:#181818;stroke-width:1;"/><line style="stroke:#181818;stroke-width:1;stroke-dasharray:2,2;" x1="32.6304" x2="410.7383" y1="302.2832" y2="302.2832"/><text fill="#000000" font-family="sans-serif" font-size="13" lengthAdjust="spacing" textLength="226.313" x="44.6304" y="297.541">notify_host participant_list_updated</text></g><g class="message" data-entity-1="part2" data-entity-2="part4" id="msg10"><polygon fill="#181818" points="399.7383,327.5938,409.7383,331.5938,399.7383,335.5938,403.7383,331.5938" style="stroke:#181818;stroke-width:1;"/><line style="stroke:#181818;stroke-width:1;" x1="103.3442" x2="405.7383" y1="331.5938" y2="331.5938"/><text fill="#000000" font-family="sans-serif" font-size="13" lengthAdjust="spacing" textLength="167.1274" x="110.3442" y="326.8516">GET /api/participant/state</text></g><g class="message" data-entity-1="part2" data-entity-2="part4" id="msg11"><polygon fill="#181818" points="399.7383,356.9043,409.7383,360.9043,399.7383,364.9043,403.7383,360.9043" style="stroke:#181818;stroke-width:1;"/><line style="stroke:#181818;stroke-width:1;" x1="103.3442" x2="405.7383" y1="360.9043" y2="360.9043"/><text fill="#000000" font-family="sans-serif" font-size="13" lengthAdjust="spacing" textLength="194.4541" x="110.3442" y="356.1621">POST /api/participant/location</text></g><g class="message" data-entity-1="part4" data-entity-2="part2" id="msg12"><polygon fill="#181818" points="114.3442,386.2148,104.3442,390.2148,114.3442,394.2148,110.3442,390.2148" style="stroke:#181818;stroke-width:1;"/><line style="stroke:#181818;stroke-width:1;stroke-dasharray:2,2;" x1="108.3442" x2="410.7383" y1="390.2148" y2="390.2148"/><text fill="#000000" font-family="sans-serif" font-size="13" lengthAdjust="spacing" textLength="284.394" x="120.3442" y="385.4727">broadcast active_participants_count_updated</text></g><g class="message" data-entity-1="part1" data-entity-2="part4" id="msg13"><polygon fill="#181818" points="399.7383,415.5254,409.7383,419.5254,399.7383,423.5254,403.7383,419.5254" style="stroke:#181818;stroke-width:1;"/><line style="stroke:#181818;stroke-width:1;" x1="27.6304" x2="405.7383" y1="419.5254" y2="419.5254"/><text fill="#000000" font-family="sans-serif" font-size="13" lengthAdjust="spacing" textLength="220.8857" x="34.6304" y="414.7832">PUT /api/{session_id}/host/activity</text></g><g class="message" data-entity-1="part4" data-entity-2="part2" id="msg14"><polygon fill="#181818" points="114.3442,444.8359,104.3442,448.8359,114.3442,452.8359,110.3442,448.8359" style="stroke:#181818;stroke-width:1;"/><line style="stroke:#181818;stroke-width:1;stroke-dasharray:2,2;" x1="108.3442" x2="410.7383" y1="448.8359" y2="448.8359"/><text fill="#000000" font-family="sans-serif" font-size="13" lengthAdjust="spacing" textLength="169.2856" x="120.3442" y="444.0938">broadcast activity_updated</text></g><g class="message" data-entity-1="part1" data-entity-2="part4" id="msg15"><polygon fill="#181818" points="399.7383,474.1465,409.7383,478.1465,399.7383,482.1465,403.7383,478.1465" style="stroke:#181818;stroke-width:1;"/><line style="stroke:#181818;stroke-width:1;" x1="27.6304" x2="405.7383" y1="478.1465" y2="478.1465"/><text fill="#000000" font-family="sans-serif" font-size="13" lengthAdjust="spacing" textLength="208.0635" x="34.6304" y="473.4043">POST /api/{session_id}/host/poll</text></g><g class="message" data-entity-1="part4" data-entity-2="part1" id="msg16"><polygon fill="#181818" points="38.6304,503.457,28.6304,507.457,38.6304,511.457,34.6304,507.457" style="stroke:#181818;stroke-width:1;"/><line style="stroke:#181818;stroke-width:1;stroke-dasharray:2,2;" x1="32.6304" x2="410.7383" y1="507.457" y2="507.457"/><text fill="#000000" font-family="sans-serif" font-size="13" lengthAdjust="spacing" textLength="185.4658" x="44.6304" y="502.7148">notify_host poll_ai_generated</text></g><g class="message" data-entity-1="part2" data-entity-2="part4" id="msg17"><polygon fill="#181818" points="399.7383,532.7676,409.7383,536.7676,399.7383,540.7676,403.7383,536.7676" style="stroke:#181818;stroke-width:1;"/><line style="stroke:#181818;stroke-width:1;" x1="103.3442" x2="405.7383" y1="536.7676" y2="536.7676"/><text fill="#000000" font-family="sans-serif" font-size="13" lengthAdjust="spacing" textLength="170.7329" x="110.3442" y="532.0254">PUT /api/participant/name</text></g><g class="message" data-entity-1="part1" data-entity-2="part4" id="msg18"><polygon fill="#181818" points="399.7383,562.0781,409.7383,566.0781,399.7383,570.0781,403.7383,566.0781" style="stroke:#181818;stroke-width:1;"/><line style="stroke:#181818;stroke-width:1;" x1="27.6304" x2="405.7383" y1="566.0781" y2="566.0781"/><text fill="#000000" font-family="sans-serif" font-size="13" lengthAdjust="spacing" textLength="246.3589" x="34.6304" y="561.3359">POST /api/{session_id}/host/poll/open</text></g><g class="message" data-entity-1="part4" data-entity-2="part2" id="msg19"><polygon fill="#181818" points="114.3442,591.3887,104.3442,595.3887,114.3442,599.3887,110.3442,595.3887" style="stroke:#181818;stroke-width:1;"/><line style="stroke:#181818;stroke-width:1;stroke-dasharray:2,2;" x1="108.3442" x2="410.7383" y1="595.3887" y2="595.3887"/><text fill="#000000" font-family="sans-serif" font-size="13" lengthAdjust="spacing" textLength="143.3745" x="120.3442" y="590.6465">broadcast poll_opened</text></g><g class="message" data-entity-1="part4" data-entity-2="part1" id="msg20"><polygon fill="#181818" points="38.6304,620.6992,28.6304,624.6992,38.6304,628.6992,34.6304,624.6992" style="stroke:#181818;stroke-width:1;"/><line style="stroke:#181818;stroke-width:1;stroke-dasharray:2,2;" x1="32.6304" x2="410.7383" y1="624.6992" y2="624.6992"/><text fill="#000000" font-family="sans-serif" font-size="13" lengthAdjust="spacing" textLength="151.4868" x="44.6304" y="619.957">notify_host poll_opened</text></g><g class="message" data-entity-1="part1" data-entity-2="part4" id="msg21"><polygon fill="#181818" points="399.7383,650.0098,409.7383,654.0098,399.7383,658.0098,403.7383,654.0098" style="stroke:#181818;stroke-width:1;"/><line style="stroke:#181818;stroke-width:1;" x1="27.6304" x2="405.7383" y1="654.0098" y2="654.0098"/><text fill="#000000" font-family="sans-serif" font-size="13" lengthAdjust="spacing" textLength="247.1523" x="34.6304" y="649.2676">POST /api/{session_id}/host/poll/close</text></g><g class="message" data-entity-1="part4" data-entity-2="part2" id="msg22"><polygon fill="#181818" points="114.3442,679.3203,104.3442,683.3203,114.3442,687.3203,110.3442,683.3203" style="stroke:#181818;stroke-width:1;"/><line style="stroke:#181818;stroke-width:1;stroke-dasharray:2,2;" x1="108.3442" x2="410.7383" y1="683.3203" y2="683.3203"/><text fill="#000000" font-family="sans-serif" font-size="13" lengthAdjust="spacing" textLength="136.9253" x="120.3442" y="678.5781">broadcast poll_closed</text></g><g class="message" data-entity-1="part4" data-entity-2="part1" id="msg23"><polygon fill="#181818" points="38.6304,708.6309,28.6304,712.6309,38.6304,716.6309,34.6304,712.6309" style="stroke:#181818;stroke-width:1;"/><line style="stroke:#181818;stroke-width:1;stroke-dasharray:2,2;" x1="32.6304" x2="410.7383" y1="712.6309" y2="712.6309"/><text fill="#000000" font-family="sans-serif" font-size="13" lengthAdjust="spacing" textLength="145.0376" x="44.6304" y="707.8887">notify_host poll_closed</text></g><g class="message" data-entity-1="part2" data-entity-2="part4" id="msg24"><polygon fill="#181818" points="399.7383,737.9414,409.7383,741.9414,399.7383,745.9414,403.7383,741.9414" style="stroke:#181818;stroke-width:1;"/><line style="stroke:#181818;stroke-width:1;" x1="103.3442" x2="405.7383" y1="741.9414" y2="741.9414"/><text fill="#000000" font-family="sans-serif" font-size="13" lengthAdjust="spacing" textLength="201.519" x="110.3442" y="737.1992">POST /api/participant/poll/vote</text></g><g class="message" data-entity-1="part1" data-entity-2="part4" id="msg25"><polygon fill="#181818" points="399.7383,767.252,409.7383,771.252,399.7383,775.252,403.7383,771.252" style="stroke:#181818;stroke-width:1;"/><line style="stroke:#181818;stroke-width:1;" x1="27.6304" x2="405.7383" y1="771.252" y2="771.252"/><text fill="#000000" font-family="sans-serif" font-size="13" lengthAdjust="spacing" textLength="250.834" x="34.6304" y="766.5098">PUT /api/{session_id}/host/poll/correct</text></g><g class="message" data-entity-1="part4" data-entity-2="part2" id="msg26"><polygon fill="#181818" points="114.3442,796.5625,104.3442,800.5625,114.3442,804.5625,110.3442,800.5625" style="stroke:#181818;stroke-width:1;"/><line style="stroke:#181818;stroke-width:1;stroke-dasharray:2,2;" x1="108.3442" x2="410.7383" y1="800.5625" y2="800.5625"/><text fill="#000000" font-family="sans-serif" font-size="13" lengthAdjust="spacing" textLength="199.9131" x="120.3442" y="795.8203">broadcast poll_correct_revealed</text></g><g class="message" data-entity-1="part4" data-entity-2="part1" id="msg27"><polygon fill="#181818" points="38.6304,825.873,28.6304,829.873,38.6304,833.873,34.6304,829.873" style="stroke:#181818;stroke-width:1;"/><line style="stroke:#181818;stroke-width:1;stroke-dasharray:2,2;" x1="32.6304" x2="410.7383" y1="829.873" y2="829.873"/><text fill="#000000" font-family="sans-serif" font-size="13" lengthAdjust="spacing" textLength="208.0254" x="44.6304" y="825.1309">notify_host poll_correct_revealed</text></g><g class="message" data-entity-1="part4" data-entity-2="part1" id="msg28"><polygon fill="#181818" points="38.6304,855.1836,28.6304,859.1836,38.6304,863.1836,34.6304,859.1836" style="stroke:#181818;stroke-width:1;"/><line style="stroke:#181818;stroke-width:1;stroke-dasharray:2,2;" x1="32.6304" x2="410.7383" y1="859.1836" y2="859.1836"/><text fill="#000000" font-family="sans-serif" font-size="13" lengthAdjust="spacing" textLength="173.2593" x="44.6304" y="854.4414">notify_host scores_updated</text></g><?plantuml-src dLJBRi8m4BpdAopkA7SEFH6rXqf5BJrRYxE09ISRsGjjLFNVwnW8ITfGXriUCpipEqxsEaUn9U8DVIP91PQrqXMKB6PFv7ZMVxIwtWpUl88s7r0FdYu12ofdINAv4lFvGt_CGcmiGQx0iIY9qSb3bGDZ7ibnXw80MrzPmRPeA6V-GYopvsoTYHGgdNuvT4vJANN-dUuzDdMABBfOkG2-gVQOhSLfSbTh73hYYhr0qlFHvwvUtixapifJYplj66tIDlA7Oa-jcU2CFmR35GI_YwOKlQrbOqfqbAJnEjSzZFjiCtPjtfdEa0BsnYFB0iNwYB8pmKb5Xv9lzhTw7oqb3DHSJz7tyDjoRTBVUXKP4z6AHqdGSeSbsl_gQDDrzrf2WNUPIwd2s3Q2pGR_wziUotG1tsDC6N8unLaWn3gxWASUu63jI8nJJzuf4rcBYYUbEb6anIE2YSytcJRuCVu0?></g></svg>