<?plantuml 1.2026.2?><svg xmlns="http://www.w3.org/2000/svg" xmlns:xlink="http://www.w3.org/1999/xlink" contentStyleType="text/css" data-diagram-type="SEQUENCE" height="679px" preserveAspectRatio="none" style="width:501px;height:679px;background:#FFFFFF;" version="1.1" viewBox="0 0 501 679" width="501px" zoomAndPan="magnify"><defs/><g><g class="participant-lifeline" data-entity-uid="part1" data-qualified-name="Host" id="part1-lifeline"><g><title>Host</title><rect fill="#000000" fill-opacity="0.00000" height="635.5215" width="8" x="23.6304" y="36.4883"/><line style="stroke:#181818;stroke-width:0.5;stroke-dasharray:5,5;" x1="27" x2="27" y1="36.4883" y2="672.0098"/></g></g><g class="participant-lifeline" data-entity-uid="part2" data-qualified-name="Participant" id="part2-lifeline"><g><title>Participant</title><rect fill="#000000" fill-opacity="0.00000" height="635.5215" width="8" x="99.3442" y="36.4883"/><line style="stroke:#181818;stroke-width:0.5;stroke-dasharray:5,5;" x1="103.2607" x2="103.2607" y1="36.4883" y2="672.0098"/></g></g><g class="participant-lifeline" data-entity-uid="part3" data-qualified-name="Railway" id="part3-lifeline"><g><title>Railway</title><rect fill="#000000" fill-opacity="0.00000" height="635.5215" width="8" x="184.6831" y="36.4883"/><line style="stroke:#181818;stroke-width:0.5;stroke-dasharray:5,5;" x1="188.4277" x2="188.4277" y1="36.4883" y2="672.0098"/></g></g><g class="participant-lifeline" data-entity-uid="part4" data-qualified-name="Daemon" id="part4-lifeline"><g><title>Daemon</title><rect fill="#000000" fill-opacity="0.00000" height="635.5215" width="8" x="456.0894" y="36.4883"/><line style="stroke:#181818;stroke-width:0.5;stroke-dasharray:5,5;" x1="459.9014" x2="459.9014" y1="36.4883" y2="672.0098"/></g></g><g class="participant participant-head" data-entity-uid="part1" data-qualified-name="Host" id="part1-head"><rect fill="#E2E2F0" height="30.4883" rx="2.5" ry="2.5" style="stroke:#181818;stroke-width:0.5;" width="45.2607" x="5" y="5"/><text fill="#000000" font-family="sans-serif" font-size="14" lengthAdjust="spacing" textLength="31.2607" x="12" y="25.5352">Host</text></g><g class="participant participant-head" data-entity-uid="part2" data-qualified-name="Participant" id="part2-head"><rect fill="#E2E2F0" height="30.4883" rx="2.5" ry="2.5" style="stroke:#181818;stroke-width:0.5;" width="86.167" x="60.2607" y="5"/><text fill="#000000" font-family="sans-serif" font-size="14" lengthAdjust="spacing" textLength="72.167" x="67.2607" y="25.5352">Participant</text></g><g class="participant participant-head" data-entity-uid="part3" data-qualified-name="Railway" id="part3-head"><rect fill="#E2E2F0" height="30.4883" rx="2.5" ry="2.5" style="stroke:#181818;stroke-width:0.5;" width="64.5107" x="156.4277" y="5"/><text fill="#000000" font-family="sans-serif" font-size="14" lengthAdjust="spacing" textLength="50.5107" x="163.4277" y="25.5352">Railway</text></g><g class="participant participant-head" data-entity-uid="part4" data-qualified-name="Daemon" id="part4-head"><rect fill="#E2E2F0" height="30.4883" rx="2.5" ry="2.5" style="stroke:#181818;stroke-width:0.5;" width="70.376" x="424.9014" y="5"/><text fill="#000000" font-family="sans-serif" font-size="14" lengthAdjust="spacing" textLength="56.376" x="431.9014" y="25.5352">Daemon</text></g><g class="message" data-entity-1="part4" data-entity-2="part2" id="msg1"><polygon fill="#181818" points="114.3442,63.7988,104.3442,67.7988,114.3442,71.7988,110.3442,67.7988" style="stroke:#181818;stroke-width:1;"/><line style="stroke:#181818;stroke-width:1;stroke-dasharray:2,2;" x1="108.3442" x2="459.0894" y1="67.7988" y2="67.7988"/><text fill="#000000" font-family="sans-serif" font-size="13" lengthAdjust="spacing" textLength="159.4722" x="120.3442" y="63.0566">broadcast notes_updated</text></g><g class="message" data-entity-1="part4" data-entity-2="part2" id="msg2"><polygon fill="#181818" points="114.3442,93.1094,104.3442,97.1094,114.3442,101.1094,110.3442,97.1094" style="stroke:#181818;stroke-width:1;"/><line style="stroke:#181818;stroke-width:1;stroke-dasharray:2,2;" x1="108.3442" x2="459.0894" y1="97.1094" y2="97.1094"/><text fill="#000000" font-family="sans-serif" font-size="13" lengthAdjust="spacing" textLength="182.9458" x="120.3442" y="92.3672">broadcast summary_updated</text></g><g class="message" data-entity-1="part1" data-entity-2="part4" id="msg3"><polygon fill="#181818" points="448.0894,122.4199,458.0894,126.4199,448.0894,130.4199,452.0894,126.4199" style="stroke:#181818;stroke-width:1;"/><line style="stroke:#181818;stroke-width:1;" x1="27.6304" x2="454.0894" y1="126.4199" y2="126.4199"/><text fill="#000000" font-family="sans-serif" font-size="13" lengthAdjust="spacing" textLength="238.3608" x="34.6304" y="121.6777">DELETE /api/{session_id}/host/scores</text></g><g class="message" data-entity-1="part4" data-entity-2="part2" id="msg4"><polygon fill="#181818" points="114.3442,151.7305,104.3442,155.7305,114.3442,159.7305,110.3442,155.7305" style="stroke:#181818;stroke-width:1;"/><line style="stroke:#181818;stroke-width:1;stroke-dasharray:2,2;" x1="108.3442" x2="459.0894" y1="155.7305" y2="155.7305"/><text fill="#000000" font-family="sans-serif" font-size="13" lengthAdjust="spacing" textLength="165.147" x="120.3442" y="150.9883">broadcast scores_updated</text></g><g class="message" data-entity-1="part1" data-entity-2="part4" id="msg5"><polygon fill="#181818" points="448.0894,181.041,458.0894,185.041,448.0894,189.041,452.0894,185.041" style="stroke:#181818;stroke-width:1;"/><line style="stroke:#181818;stroke-width:1;" x1="27.6304" x2="454.0894" y1="185.041" y2="185.041"/><text fill="#000000" font-family="sans-serif" font-size="13" lengthAdjust="spacing" textLength="143.7808" x="34.6304" y="180.2988">GET /host/{session_id}</text></g><g class="message" data-entity-1="part1" data-entity-2="part4" id="msg6"><polygon fill="#181818" points="448.0894,210.3516,458.0894,214.3516,448.0894,218.3516,452.0894,214.3516" style="stroke:#181818;stroke-width:1;"/><line style="stroke:#181818;stroke-width:1;" x1="27.6304" x2="454.0894" y1="214.3516" y2="214.3516"/><text fill="#000000" font-family="sans-serif" font-size="13" lengthAdjust="spacing" textLength="207.3081" x="34.6304" y="209.6094">GET /api/{session_id}/host/state</text></g><g class="message" data-entity-1="part2" data-entity-2="part4" id="msg7"><polygon fill="#181818" points="448.0894,239.6621,458.0894,243.6621,448.0894,247.6621,452.0894,243.6621" style="stroke:#181818;stroke-width:1;"/><line style="stroke:#181818;stroke-width:1;" x1="103.3442" x2="454.0894" y1="243.6621" y2="243.6621"/><text fill="#000000" font-family="sans-serif" font-size="13" lengthAdjust="spacing" textLength="192.6768" x="110.3442" y="238.9199">POST /api/participant/register</text></g><g class="message" data-entity-1="part3" data-entity-2="part4" id="msg8"><polygon fill="#181818" points="448.0894,268.9727,458.0894,272.9727,448.0894,276.9727,452.0894,272.9727" style="stroke:#181818;stroke-width:1;"/><line style="stroke:#181818;stroke-width:1;" x1="188.6831" x2="454.0894" y1="272.9727" y2="272.9727"/><text fill="#000000" font-family="sans-serif" font-size="13" lengthAdjust="spacing" textLength="178.3691" x="195.6831" y="268.2305">GET /{session_id}/api/slides</text></g><g class="message" data-entity-1="part4" data-entity-2="part1" id="msg9"><polygon fill="#181818" points="38.6304,298.2832,28.6304,302.2832,38.6304,306.2832,34.6304,302.2832" style="stroke:#181818;stroke-width:1;"/><line style="stroke:#181818;stroke-width:1;stroke-dasharray:2,2;" x1="32.6304" x2="459.0894" y1="302.2832" y2="302.2832"/><text fill="#000000" font-family="sans-serif" font-size="13" lengthAdjust="spacing" textLength="226.313" x="44.6304" y="297.541">notify_host participant_list_updated</text></g><g class="message" data-entity-1="part2" data-entity-2="part4" id="msg10"><polygon fill="#181818" points="448.0894,327.5938,458.0894,331.5938,448.0894,335.5938,452.0894,331.5938" style="stroke:#181818;stroke-width:1;"/><line style="stroke:#181818;stroke-width:1;" x1="103.3442" x2="454.0894" y1="331.5938" y2="331.5938"/><text fill="#000000" font-family="sans-serif" font-size="13" lengthAdjust="spacing" textLength="167.1274" x="110.3442" y="326.8516">GET /api/participant/state</text></g><g class="message" data-entity-1="part2" data-entity-2="part4" id="msg11"><polygon fill="#181818" points="448.0894,356.9043,458.0894,360.9043,448.0894,364.9043,452.0894,360.9043" style="stroke:#181818;stroke-width:1;"/><line style="stroke:#181818;stroke-width:1;" x1="103.3442" x2="454.0894" y1="360.9043" y2="360.9043"/><text fill="#000000" font-family="sans-serif" font-size="13" lengthAdjust="spacing" textLength="194.4541" x="110.3442" y="356.1621">POST /api/participant/location</text></g><g class="message" data-entity-1="part4" data-entity-2="part2" id="msg12"><polygon fill="#181818" points="114.3442,386.2148,104.3442,390.2148,114.3442,394.2148,110.3442,390.2148" style="stroke:#181818;stroke-width:1;"/><line style="stroke:#181818;stroke-width:1;stroke-dasharray:2,2;" x1="108.3442" x2="459.0894" y1="390.2148" y2="390.2148"/><text fill="#000000" font-family="sans-serif" font-size="13" lengthAdjust="spacing" textLength="284.394" x="120.3442" y="385.4727">broadcast active_participants_count_updated</text></g><g class="message" data-entity-1="part2" data-entity-2="part4" id="msg13"><polygon fill="#181818" points="448.0894,415.5254,458.0894,419.5254,448.0894,423.5254,452.0894,419.5254" style="stroke:#181818;stroke-width:1;"/><line style="stroke:#181818;stroke-width:1;" x1="103.3442" x2="454.0894" y1="419.5254" y2="419.5254"/><text fill="#000000" font-family="sans-serif" font-size="13" lengthAdjust="spacing" textLength="170.7329" x="110.3442" y="414.7832">PUT /api/participant/name</text></g><g class="message" data-entity-1="part1" data-entity-2="part4" id="msg14"><polygon fill="#181818" points="448.0894,444.8359,458.0894,448.8359,448.0894,452.8359,452.0894,448.8359" style="stroke:#181818;stroke-width:1;"/><line style="stroke:#181818;stroke-width:1;" x1="27.6304" x2="454.0894" y1="448.8359" y2="448.8359"/><text fill="#000000" font-family="sans-serif" font-size="13" lengthAdjust="spacing" textLength="220.8857" x="34.6304" y="444.0938">PUT /api/{session_id}/host/activity</text></g><g class="message" data-entity-1="part4" data-entity-2="part2" id="msg15"><polygon fill="#181818" points="114.3442,474.1465,104.3442,478.1465,114.3442,482.1465,110.3442,478.1465" style="stroke:#181818;stroke-width:1;"/><line style="stroke:#181818;stroke-width:1;stroke-dasharray:2,2;" x1="108.3442" x2="459.0894" y1="478.1465" y2="478.1465"/><text fill="#000000" font-family="sans-serif" font-size="13" lengthAdjust="spacing" textLength="169.2856" x="120.3442" y="473.4043">broadcast activity_updated</text></g><g class="message" data-entity-1="part2" data-entity-2="part4" id="msg16"><polygon fill="#181818" points="448.0894,503.457,458.0894,507.457,448.0894,511.457,452.0894,507.457" style="stroke:#181818;stroke-width:1;"/><line style="stroke:#181818;stroke-width:1;" x1="103.3442" x2="454.0894" y1="507.457" y2="507.457"/><text fill="#000000" font-family="sans-serif" font-size="13" lengthAdjust="spacing" textLength="210.0122" x="110.3442" y="502.7148">POST /api/participant/qa/submit</text></g><g class="message" data-entity-1="part4" data-entity-2="part1" id="msg17"><polygon fill="#181818" points="38.6304,532.7676,28.6304,536.7676,38.6304,540.7676,34.6304,536.7676" style="stroke:#181818;stroke-width:1;"/><line style="stroke:#181818;stroke-width:1;stroke-dasharray:2,2;" x1="32.6304" x2="459.0894" y1="536.7676" y2="536.7676"/><text fill="#000000" font-family="sans-serif" font-size="13" lengthAdjust="spacing" textLength="148.1606" x="44.6304" y="532.0254">notify_host qa_updated</text></g><g class="message" data-entity-1="part4" data-entity-2="part1" id="msg18"><polygon fill="#181818" points="38.6304,562.0781,28.6304,566.0781,38.6304,570.0781,34.6304,566.0781" style="stroke:#181818;stroke-width:1;"/><line style="stroke:#181818;stroke-width:1;stroke-dasharray:2,2;" x1="32.6304" x2="459.0894" y1="566.0781" y2="566.0781"/><text fill="#000000" font-family="sans-serif" font-size="13" lengthAdjust="spacing" textLength="173.2593" x="44.6304" y="561.3359">notify_host scores_updated</text></g><g class="message" data-entity-1="part2" data-entity-2="part4" id="msg19"><polygon fill="#181818" points="448.0894,591.3887,458.0894,595.3887,448.0894,599.3887,452.0894,595.3887" style="stroke:#181818;stroke-width:1;"/><line style="stroke:#181818;stroke-width:1;" x1="103.3442" x2="454.0894" y1="595.3887" y2="595.3887"/><text fill="#000000" font-family="sans-serif" font-size="13" lengthAdjust="spacing" textLength="209.4473" x="110.3442" y="590.6465">POST /api/participant/qa/upvote</text></g><g class="message" data-entity-1="part1" data-entity-2="part4" id="msg20"><polygon fill="#181818" points="448.0894,620.6992,458.0894,624.6992,448.0894,628.6992,452.0894,624.6992" style="stroke:#181818;stroke-width:1;"/><line style="stroke:#181818;stroke-width:1;" x1="27.6304" x2="454.0894" y1="624.6992" y2="624.6992"/><text fill="#000000" font-family="sans-serif" font-size="13" lengthAdjust="spacing" textLength="408.459" x="34.6304" y="619.957">PUT /api/{session_id}/host/qa/question/{question_id}/answered</text></g><g class="message" data-entity-1="part4" data-entity-2="part2" id="msg21"><polygon fill="#181818" points="114.3442,650.0098,104.3442,654.0098,114.3442,658.0098,110.3442,654.0098" style="stroke:#181818;stroke-width:1;"/><line style="stroke:#181818;stroke-width:1;stroke-dasharray:2,2;" x1="108.3442" x2="459.0894" y1="654.0098" y2="654.0098"/><text fill="#000000" font-family="sans-serif" font-size="13" lengthAdjust="spacing" textLength="140.0483" x="120.3442" y="649.2676">broadcast qa_updated</text></g><?plantuml-src dPG_RuCm4CLtFeMLFVBEq2ce7IeLDUbi7U0qbi06tv4KHVtkDIJXNw4bsOovT-_dUuQ3IYJR6qEH-VAy72ofMEMWYQrU3D9gk1Ls3wCtxw3I4rIZtGt8pEYLvzrMRBr-6hRnMMGD934WCMr8eYZp14Wc2pLOPXdOgbCrsAoMNFK-smIlmIvW77B5poWHbT529T_yu6evniPAN6hN5F_fzXpisALptsk-T8QAd84tu1XgmxVjLTmRERVoKo59wxM9J3WEtEeEcBfhC1v1m-lNeQXz9MeerdCIgVFfvZ3FsPwnZ_dWwL8J0pdmXM51JEeeHQy3YjYKUX5t-341e26JaqcsrR-JR2WKLVT0k_95Z9DJAe1Z6MMA_W-qW9dFRQ9sVFKVm2hpew6x1-Y4HIcn3fwVRwlBtTLuadRnlw9tsXy0?></g></svg>