<?plantuml 1.2026.2?><svg xmlns="http://www.w3.org/2000/svg" xmlns:xlink="http://www.w3.org/1999/xlink" contentStyleType="text/css" data-diagram-type="SEQUENCE" height="884px" preserveAspectRatio="none" style="width:452px;height:884px;background:#FFFFFF;" version="1.1" viewBox="0 0 452 884" width="452px" zoomAndPan="magnify"><defs/><g><g class="participant-lifeline" data-entity-uid="part1" data-qualified-name="Daemon" id="part1-lifeline"><g><title>Daemon</title><rect fill="#000000" fill-opacity="0.00000" height="840.6953" width="8" x="36.188" y="36.4883"/><line style="stroke:#181818;stroke-width:0.5;stroke-dasharray:5,5;" x1="40" x2="40" y1="36.4883" y2="877.1836"/></g></g><g class="participant-lifeline" data-entity-uid="part2" data-qualified-name="Participant" id="part2-lifeline"><g><title>Participant</title><rect fill="#000000" fill-opacity="0.00000" height="840.6953" width="8" x="344.582" y="36.4883"/><line style="stroke:#181818;stroke-width:0.5;stroke-dasharray:5,5;" x1="348.4985" x2="348.4985" y1="36.4883" y2="877.1836"/></g></g><g class="participant-lifeline" data-entity-uid="part3" data-qualified-name="Host" id="part3-lifeline"><g><title>Host</title><rect fill="#000000" fill-opacity="0.00000" height="840.6953" width="8" x="420.2959" y="36.4883"/><line style="stroke:#181818;stroke-width:0.5;stroke-dasharray:5,5;" x1="423.6655" x2="423.6655" y1="36.4883" y2="877.1836"/></g></g><g class="participant participant-head" data-entity-uid="part1" data-qualified-name="Daemon" id="part1-head"><rect fill="#E2E2F0" height="30.4883" rx="2.5" ry="2.5" style="stroke:#181818;stroke-width:0.5;" width="70.376" x="5" y="5"/><text fill="#000000" font-family="sans-serif" font-size="14" lengthAdjust="spacing" textLength="56.376" x="12" y="25.5352">Daemon</text></g><g class="participant participant-head" data-entity-uid="part2" data-qualified-name="Participant" id="part2-head"><rect fill="#E2E2F0" height="30.4883" rx="2.5" ry="2.5" style="stroke:#181818;stroke-width:0.5;" width="86.167" x="305.4985" y="5"/><text fill="#000000" font-family="sans-serif" font-size="14" lengthAdjust="spacing" textLength="72.167" x="312.4985" y="25.5352">Participant</text></g><g class="participant participant-head" data-entity-uid="part3" data-qualified-name="Host" id="part3-head"><rect fill="#E2E2F0" height="30.4883" rx="2.5" ry="2.5" style="stroke:#181818;stroke-width:0.5;" width="45.2607" x="401.6655" y="5"/><text fill="#000000" font-family="sans-serif" font-size="14" lengthAdjust="spacing" textLength="31.2607" x="408.6655" y="25.5352">Host</text></g><g class="message" data-entity-1="part1" data-entity-2="part2" id="msg1"><polygon fill="#181818" points="336.582,63.7988,346.582,67.7988,336.582,71.7988,340.582,67.7988" style="stroke:#181818;stroke-width:1;"/><line style="stroke:#181818;stroke-width:1;" x1="40.188" x2="342.582" y1="67.7988" y2="67.7988"/><text fill="#000000" font-family="sans-serif" font-size="13" lengthAdjust="spacing" textLength="159.4722" x="47.188" y="63.0566">broadcast notes_updated</text></g><g class="message" data-entity-1="part1" data-entity-2="part2" id="msg2"><polygon fill="#181818" points="336.582,93.1094,346.582,97.1094,336.582,101.1094,340.582,97.1094" style="stroke:#181818;stroke-width:1;"/><line style="stroke:#181818;stroke-width:1;" x1="40.188" x2="342.582" y1="97.1094" y2="97.1094"/><text fill="#000000" font-family="sans-serif" font-size="13" lengthAdjust="spacing" textLength="182.9458" x="47.188" y="92.3672">broadcast summary_updated</text></g><g class="message" data-entity-1="part3" data-entity-2="part1" id="msg3"><polygon fill="#181818" points="51.188,122.4199,41.188,126.4199,51.188,130.4199,47.188,126.4199" style="stroke:#181818;stroke-width:1;"/><line style="stroke:#181818;stroke-width:1;" x1="45.188" x2="423.2959" y1="126.4199" y2="126.4199"/><text fill="#000000" font-family="sans-serif" font-size="13" lengthAdjust="spacing" textLength="238.3608" x="57.188" y="121.6777">DELETE /api/{session_id}/host/scores</text></g><g class="message" data-entity-1="part1" data-entity-2="part2" id="msg4"><polygon fill="#181818" points="336.582,151.7305,346.582,155.7305,336.582,159.7305,340.582,155.7305" style="stroke:#181818;stroke-width:1;"/><line style="stroke:#181818;stroke-width:1;" x1="40.188" x2="342.582" y1="155.7305" y2="155.7305"/><text fill="#000000" font-family="sans-serif" font-size="13" lengthAdjust="spacing" textLength="165.147" x="47.188" y="150.9883">broadcast scores_updated</text></g><g class="message" data-entity-1="part3" data-entity-2="part1" id="msg5"><polygon fill="#181818" points="51.188,181.041,41.188,185.041,51.188,189.041,47.188,185.041" style="stroke:#181818;stroke-width:1;"/><line style="stroke:#181818;stroke-width:1;" x1="45.188" x2="423.2959" y1="185.041" y2="185.041"/><text fill="#000000" font-family="sans-serif" font-size="13" lengthAdjust="spacing" textLength="143.7808" x="57.188" y="180.2988">GET /host/{session_id}</text></g><g class="message" data-entity-1="part3" data-entity-2="part1" id="msg6"><polygon fill="#181818" points="51.188,210.3516,41.188,214.3516,51.188,218.3516,47.188,214.3516" style="stroke:#181818;stroke-width:1;"/><line style="stroke:#181818;stroke-width:1;" x1="45.188" x2="423.2959" y1="214.3516" y2="214.3516"/><text fill="#000000" font-family="sans-serif" font-size="13" lengthAdjust="spacing" textLength="207.3081" x="57.188" y="209.6094">GET /api/{session_id}/host/state</text></g><g class="message" data-entity-1="part2" data-entity-2="part1" id="msg7"><polygon fill="#181818" points="51.188,239.6621,41.188,243.6621,51.188,247.6621,47.188,243.6621" style="stroke:#181818;stroke-width:1;"/><line style="stroke:#181818;stroke-width:1;" x1="45.188" x2="347.582" y1="243.6621" y2="243.6621"/><text fill="#000000" font-family="sans-serif" font-size="13" lengthAdjust="spacing" textLength="178.3691" x="57.188" y="238.9199">GET /{session_id}/api/slides</text></g><g class="message" data-entity-1="part2" data-entity-2="part1" id="msg8"><polygon fill="#181818" points="51.188,268.9727,41.188,272.9727,51.188,276.9727,47.188,272.9727" style="stroke:#181818;stroke-width:1;"/><line style="stroke:#181818;stroke-width:1;" x1="45.188" x2="347.582" y1="272.9727" y2="272.9727"/><text fill="#000000" font-family="sans-serif" font-size="13" lengthAdjust="spacing" textLength="192.6768" x="57.188" y="268.2305">POST /api/participant/register</text></g><g class="message" data-entity-1="part1" data-entity-2="part3" id="msg9"><polygon fill="#181818" points="412.2959,298.2832,422.2959,302.2832,412.2959,306.2832,416.2959,302.2832" style="stroke:#181818;stroke-width:1;"/><line style="stroke:#181818;stroke-width:1;" x1="40.188" x2="418.2959" y1="302.2832" y2="302.2832"/><text fill="#000000" font-family="sans-serif" font-size="13" lengthAdjust="spacing" textLength="226.313" x="47.188" y="297.541">notify_host participant_list_updated</text></g><g class="message" data-entity-1="part2" data-entity-2="part1" id="msg10"><polygon fill="#181818" points="51.188,327.5938,41.188,331.5938,51.188,335.5938,47.188,331.5938" style="stroke:#181818;stroke-width:1;"/><line style="stroke:#181818;stroke-width:1;" x1="45.188" x2="347.582" y1="331.5938" y2="331.5938"/><text fill="#000000" font-family="sans-serif" font-size="13" lengthAdjust="spacing" textLength="167.1274" x="57.188" y="326.8516">GET /api/participant/state</text></g><g class="message" data-entity-1="part2" data-entity-2="part1" id="msg11"><polygon fill="#181818" points="51.188,356.9043,41.188,360.9043,51.188,364.9043,47.188,360.9043" style="stroke:#181818;stroke-width:1;"/><line style="stroke:#181818;stroke-width:1;" x1="45.188" x2="347.582" y1="360.9043" y2="360.9043"/><text fill="#000000" font-family="sans-serif" font-size="13" lengthAdjust="spacing" textLength="194.4541" x="57.188" y="356.1621">POST /api/participant/location</text></g><g class="message" data-entity-1="part1" data-entity-2="part2" id="msg12"><polygon fill="#181818" points="336.582,386.2148,346.582,390.2148,336.582,394.2148,340.582,390.2148" style="stroke:#181818;stroke-width:1;"/><line style="stroke:#181818;stroke-width:1;" x1="40.188" x2="342.582" y1="390.2148" y2="390.2148"/><text fill="#000000" font-family="sans-serif" font-size="13" lengthAdjust="spacing" textLength="284.394" x="47.188" y="385.4727">broadcast active_participants_count_updated</text></g><g class="message" data-entity-1="part3" data-entity-2="part1" id="msg13"><polygon fill="#181818" points="51.188,415.5254,41.188,419.5254,51.188,423.5254,47.188,419.5254" style="stroke:#181818;stroke-width:1;"/><line style="stroke:#181818;stroke-width:1;" x1="45.188" x2="423.2959" y1="419.5254" y2="419.5254"/><text fill="#000000" font-family="sans-serif" font-size="13" lengthAdjust="spacing" textLength="220.8857" x="57.188" y="414.7832">PUT /api/{session_id}/host/activity</text></g><g class="message" data-entity-1="part1" data-entity-2="part2" id="msg14"><polygon fill="#181818" points="336.582,444.8359,346.582,448.8359,336.582,452.8359,340.582,448.8359" style="stroke:#181818;stroke-width:1;"/><line style="stroke:#181818;stroke-width:1;" x1="40.188" x2="342.582" y1="448.8359" y2="448.8359"/><text fill="#000000" font-family="sans-serif" font-size="13" lengthAdjust="spacing" textLength="169.2856" x="47.188" y="444.0938">broadcast activity_updated</text></g><g class="message" data-entity-1="part3" data-entity-2="part1" id="msg15"><polygon fill="#181818" points="51.188,474.1465,41.188,478.1465,51.188,482.1465,47.188,478.1465" style="stroke:#181818;stroke-width:1;"/><line style="stroke:#181818;stroke-width:1;" x1="45.188" x2="423.2959" y1="478.1465" y2="478.1465"/><text fill="#000000" font-family="sans-serif" font-size="13" lengthAdjust="spacing" textLength="208.0635" x="57.188" y="473.4043">POST /api/{session_id}/host/poll</text></g><g class="message" data-entity-1="part1" data-entity-2="part3" id="msg16"><polygon fill="#181818" points="412.2959,503.457,422.2959,507.457,412.2959,511.457,416.2959,507.457" style="stroke:#181818;stroke-width:1;"/><line style="stroke:#181818;stroke-width:1;" x1="40.188" x2="418.2959" y1="507.457" y2="507.457"/><text fill="#000000" font-family="sans-serif" font-size="13" lengthAdjust="spacing" textLength="185.4658" x="47.188" y="502.7148">notify_host poll_ai_generated</text></g><g class="message" data-entity-1="part2" data-entity-2="part1" id="msg17"><polygon fill="#181818" points="51.188,532.7676,41.188,536.7676,51.188,540.7676,47.188,536.7676" style="stroke:#181818;stroke-width:1;"/><line style="stroke:#181818;stroke-width:1;" x1="45.188" x2="347.582" y1="536.7676" y2="536.7676"/><text fill="#000000" font-family="sans-serif" font-size="13" lengthAdjust="spacing" textLength="170.7329" x="57.188" y="532.0254">PUT /api/participant/name</text></g><g class="message" data-entity-1="part3" data-entity-2="part1" id="msg18"><polygon fill="#181818" points="51.188,562.0781,41.188,566.0781,51.188,570.0781,47.188,566.0781" style="stroke:#181818;stroke-width:1;"/><line style="stroke:#181818;stroke-width:1;" x1="45.188" x2="423.2959" y1="566.0781" y2="566.0781"/><text fill="#000000" font-family="sans-serif" font-size="13" lengthAdjust="spacing" textLength="246.3589" x="57.188" y="561.3359">POST /api/{session_id}/host/poll/open</text></g><g class="message" data-entity-1="part1" data-entity-2="part2" id="msg19"><polygon fill="#181818" points="336.582,591.3887,346.582,595.3887,336.582,599.3887,340.582,595.3887" style="stroke:#181818;stroke-width:1;"/><line style="stroke:#181818;stroke-width:1;" x1="40.188" x2="342.582" y1="595.3887" y2="595.3887"/><text fill="#000000" font-family="sans-serif" font-size="13" lengthAdjust="spacing" textLength="143.3745" x="47.188" y="590.6465">broadcast poll_opened</text></g><g class="message" data-entity-1="part1" data-entity-2="part3" id="msg20"><polygon fill="#181818" points="412.2959,620.6992,422.2959,624.6992,412.2959,628.6992,416.2959,624.6992" style="stroke:#181818;stroke-width:1;"/><line style="stroke:#181818;stroke-width:1;" x1="40.188" x2="418.2959" y1="624.6992" y2="624.6992"/><text fill="#000000" font-family="sans-serif" font-size="13" lengthAdjust="spacing" textLength="151.4868" x="47.188" y="619.957">notify_host poll_opened</text></g><g class="message" data-entity-1="part3" data-entity-2="part1" id="msg21"><polygon fill="#181818" points="51.188,650.0098,41.188,654.0098,51.188,658.0098,47.188,654.0098" style="stroke:#181818;stroke-width:1;"/><line style="stroke:#181818;stroke-width:1;" x1="45.188" x2="423.2959" y1="654.0098" y2="654.0098"/><text fill="#000000" font-family="sans-serif" font-size="13" lengthAdjust="spacing" textLength="247.1523" x="57.188" y="649.2676">POST /api/{session_id}/host/poll/close</text></g><g class="message" data-entity-1="part1" data-entity-2="part2" id="msg22"><polygon fill="#181818" points="336.582,679.3203,346.582,683.3203,336.582,687.3203,340.582,683.3203" style="stroke:#181818;stroke-width:1;"/><line style="stroke:#181818;stroke-width:1;" x1="40.188" x2="342.582" y1="683.3203" y2="683.3203"/><text fill="#000000" font-family="sans-serif" font-size="13" lengthAdjust="spacing" textLength="136.9253" x="47.188" y="678.5781">broadcast poll_closed</text></g><g class="message" data-entity-1="part1" data-entity-2="part3" id="msg23"><polygon fill="#181818" points="412.2959,708.6309,422.2959,712.6309,412.2959,716.6309,416.2959,712.6309" style="stroke:#181818;stroke-width:1;"/><line style="stroke:#181818;stroke-width:1;" x1="40.188" x2="418.2959" y1="712.6309" y2="712.6309"/><text fill="#000000" font-family="sans-serif" font-size="13" lengthAdjust="spacing" textLength="145.0376" x="47.188" y="707.8887">notify_host poll_closed</text></g><g class="message" data-entity-1="part2" data-entity-2="part1" id="msg24"><polygon fill="#181818" points="51.188,737.9414,41.188,741.9414,51.188,745.9414,47.188,741.9414" style="stroke:#181818;stroke-width:1;"/><line style="stroke:#181818;stroke-width:1;" x1="45.188" x2="347.582" y1="741.9414" y2="741.9414"/><text fill="#000000" font-family="sans-serif" font-size="13" lengthAdjust="spacing" textLength="201.519" x="57.188" y="737.1992">POST /api/participant/poll/vote</text></g><g class="message" data-entity-1="part3" data-entity-2="part1" id="msg25"><polygon fill="#181818" points="51.188,767.252,41.188,771.252,51.188,775.252,47.188,771.252" style="stroke:#181818;stroke-width:1;"/><line style="stroke:#181818;stroke-width:1;" x1="45.188" x2="423.2959" y1="771.252" y2="771.252"/><text fill="#000000" font-family="sans-serif" font-size="13" lengthAdjust="spacing" textLength="250.834" x="57.188" y="766.5098">PUT /api/{session_id}/host/poll/correct</text></g><g class="message" data-entity-1="part1" data-entity-2="part2" id="msg26"><polygon fill="#181818" points="336.582,796.5625,346.582,800.5625,336.582,804.5625,340.582,800.5625" style="stroke:#181818;stroke-width:1;"/><line style="stroke:#181818;stroke-width:1;" x1="40.188" x2="342.582" y1="800.5625" y2="800.5625"/><text fill="#000000" font-family="sans-serif" font-size="13" lengthAdjust="spacing" textLength="199.9131" x="47.188" y="795.8203">broadcast poll_correct_revealed</text></g><g class="message" data-entity-1="part1" data-entity-2="part3" id="msg27"><polygon fill="#181818" points="412.2959,825.873,422.2959,829.873,412.2959,833.873,416.2959,829.873" style="stroke:#181818;stroke-width:1;"/><line style="stroke:#181818;stroke-width:1;" x1="40.188" x2="418.2959" y1="829.873" y2="829.873"/><text fill="#000000" font-family="sans-serif" font-size="13" lengthAdjust="spacing" textLength="208.0254" x="47.188" y="825.1309">notify_host poll_correct_revealed</text></g><g class="message" data-entity-1="part1" data-entity-2="part3" id="msg28"><polygon fill="#181818" points="412.2959,855.1836,422.2959,859.1836,412.2959,863.1836,416.2959,859.1836" style="stroke:#181818;stroke-width:1;"/><line style="stroke:#181818;stroke-width:1;" x1="40.188" x2="418.2959" y1="859.1836" y2="859.1836"/><text fill="#000000" font-family="sans-serif" font-size="13" lengthAdjust="spacing" textLength="173.2593" x="47.188" y="854.4414">notify_host scores_updated</text></g><?plantuml-src dLJBRi8m4BpdAopkLUuSUY9g3vMAL3XRnbd0akEDl0igglhlTSmhIScBOvoPdPaT9tkJWzWYyWQ_awHKdeqsfN8iPWi51RfPyt1vVsYzUKSAHycL9bvUc-Yvs7XKkLR4mY43oKEPAuPy78KEHQ7ywKwAUf5oeS_58ll8Lfb8LMdI7m8YWqwQ_3VT1snA6ZtGIBM8xHLxorRYFBWkrGtjCCL186duUC1jyAf1P4DlrCTRVdvTH6ijfHvsXXXySmlHyhngnMnFil8bQYHf0-M-YW6hRSN1W8-DMjIAG-9nTIdDvWYoDe2aneFZtWQNwyvQua33fmdo0TslTilvNwv4QuSh2I2fZDo10p_KnIrRVQbE5V2KjnHB65b5T5d1snzsLw8hzXbRsYB115yHFzBN5JlrvaPZHsIOUkVEYT1xq3mbqvaXFHn1sT7ffh9QVyG_?></g></svg>